<svg xmlns="http://www.w3.org/2000/svg" width="78" height="78" fill="none" viewBox="0 0 78 78">
    <path fill="#fff" d="M39 58c13.807 0 25-11.193 25-25S52.807 8 39 8 14 19.193 14 33s11.193 25 25 25z" filter="url(#a)"/>
    <path fill="#448AFF" d="M39 21.333c-6.447 0-11.667 5.063-11.667 11.25 0 3.25 1.413 6.125 3.684 8.188v5.562l4.79-2.937c.982.25 2.088.437 3.193.437 6.447 0 11.667-5.062 11.667-11.25 0-6.187-5.22-11.25-11.667-11.25z"/>
    <path fill="#fff" d="M31.632 36.333l6.14-6.875 3.07 3.125 5.526-3.125-6.14 6.875-3.07-3.125-5.526 3.125z"/>
    <defs>
        <filter id="a" width="78" height="78" x="0" y="0" color-interpolation-filters="sRGB" filterUnits="userSpaceOnUse">
            <feFlood flood-opacity="0" result="BackgroundImageFix"/>
            <feColorMatrix in="SourceAlpha" values="0 0 0 0 0 0 0 0 0 0 0 0 0 0 0 0 0 0 127 0"/>
            <feOffset dy="6"/>
            <feGaussianBlur stdDeviation="7"/>
            <feColorMatrix values="0 0 0 0 0.929412 0 0 0 0 0.937255 0 0 0 0 0.956863 0 0 0 1 0"/>
            <feBlend in2="BackgroundImageFix" result="effect1_dropShadow"/>
            <feBlend in="SourceGraphic" in2="effect1_dropShadow" result="shape"/>
        </filter>
    </defs>
</svg>
