<svg xmlns="http://www.w3.org/2000/svg" width="78" height="78" fill="none" viewBox="0 0 78 78">
    <path fill="#fff" d="M39 58c13.807 0 25-11.193 25-25S52.807 8 39 8 14 19.193 14 33s11.193 25 25 25z" filter="url(#a)"/>
    <path fill="#1BA1F4" d="M52.333 25.562c-.98.438-2.034.73-3.145.868 1.13-.677 2-1.756 2.408-3.032a10.925 10.925 0 0 1-3.476 1.327A5.442 5.442 0 0 0 44.13 23a5.47 5.47 0 0 0-5.328 6.717 15.546 15.546 0 0 1-11.276-5.719 5.438 5.438 0 0 0-.741 2.754 5.47 5.47 0 0 0 2.433 4.555 5.535 5.535 0 0 1-2.48-.683v.064a5.474 5.474 0 0 0 4.386 5.365c-.456.126-.94.197-1.437.197-.354 0-.698-.04-1.031-.101a5.487 5.487 0 0 0 5.109 3.8 10.994 10.994 0 0 1-8.1 2.263 15.536 15.536 0 0 0 8.388 2.455c10.062 0 15.567-8.335 15.567-15.566 0-.237-.007-.473-.019-.706 1.074-.765 2-1.73 2.731-2.833z"/>
    <defs>
        <filter id="a" width="78" height="78" x="0" y="0" color-interpolation-filters="sRGB" filterUnits="userSpaceOnUse">
            <feFlood flood-opacity="0" result="BackgroundImageFix"/>
            <feColorMatrix in="SourceAlpha" values="0 0 0 0 0 0 0 0 0 0 0 0 0 0 0 0 0 0 127 0"/>
            <feOffset dy="6"/>
            <feGaussianBlur stdDeviation="7"/>
            <feColorMatrix values="0 0 0 0 0.929412 0 0 0 0 0.937255 0 0 0 0 0.956863 0 0 0 1 0"/>
            <feBlend in2="BackgroundImageFix" result="effect1_dropShadow"/>
            <feBlend in="SourceGraphic" in2="effect1_dropShadow" result="shape"/>
        </filter>
    </defs>
</svg>
