<svg xmlns="http://www.w3.org/2000/svg" width="78" height="78" fill="none" viewBox="0 0 78 78">
    <path fill="#fff" d="M39 58c13.807 0 25-11.193 25-25S52.807 8 39 8 14 19.193 14 33s11.193 25 25 25z" filter="url(#a)"/>
    <path fill="#2196F3" d="M48.986 33.35c-.088 2.035-.591 3.65-1.509 4.846-.917 1.197-2.152 1.794-3.7 1.794-.685 0-1.275-.147-1.772-.441a2.792 2.792 0 0 1-1.126-1.263c-.795 1.112-1.832 1.67-3.112 1.67-1.16 0-2.058-.49-2.693-1.468-.636-.977-.875-2.268-.716-3.873.143-1.311.476-2.478.996-3.5.52-1.02 1.178-1.805 1.972-2.354.795-.548 1.653-.822 2.575-.822 1.137 0 2.106.262 2.909.788l.751.512-.607 6.889c-.08.627-.01 1.109.208 1.442.218.334.566.5 1.043.5.73 0 1.343-.427 1.835-1.282.493-.853.763-1.97.811-3.355.135-2.774-.422-4.906-1.674-6.395-1.252-1.49-3.106-2.235-5.56-2.235-1.535 0-2.901.389-4.101 1.168-1.2.78-2.146 1.886-2.837 3.32-.692 1.434-1.082 3.077-1.17 4.93-.126 2.812.438 4.988 1.694 6.525 1.255 1.538 3.135 2.307 5.638 2.307.66 0 1.351-.073 2.075-.22.722-.148 1.347-.345 1.87-.59l.454 1.834c-.485.319-1.138.576-1.962.77-.821.196-1.65.292-2.485.292-2.098 0-3.886-.424-5.364-1.268-1.478-.847-2.58-2.094-3.308-3.744-.726-1.65-1.043-3.619-.947-5.906.095-2.195.595-4.161 1.502-5.9.905-1.741 2.139-3.087 3.701-4.035 1.561-.95 3.323-1.426 5.286-1.426 1.994 0 3.712.428 5.15 1.282 1.437.854 2.514 2.075 3.23 3.665.716 1.59 1.03 3.437.943 5.543zm-11.98 1.264c-.089 1.049.003 1.845.273 2.39.27.544.708.817 1.311.817.39 0 .76-.171 1.11-.513.349-.342.64-.834.87-1.478l.5-5.639a2.978 2.978 0 0 0-.953-.154c-.914 0-1.624.389-2.128 1.167-.505.779-.833 1.916-.984 3.41z"/>
    <defs>
        <filter id="a" width="78" height="78" x="0" y="0" color-interpolation-filters="sRGB" filterUnits="userSpaceOnUse">
            <feFlood flood-opacity="0" result="BackgroundImageFix"/>
            <feColorMatrix in="SourceAlpha" values="0 0 0 0 0 0 0 0 0 0 0 0 0 0 0 0 0 0 127 0"/>
            <feOffset dy="6"/>
            <feGaussianBlur stdDeviation="7"/>
            <feColorMatrix values="0 0 0 0 0.929412 0 0 0 0 0.937255 0 0 0 0 0.956863 0 0 0 1 0"/>
            <feBlend in2="BackgroundImageFix" result="effect1_dropShadow"/>
            <feBlend in="SourceGraphic" in2="effect1_dropShadow" result="shape"/>
        </filter>
    </defs>
</svg>
