<svg xmlns="http://www.w3.org/2000/svg" width="78" height="78" fill="none" viewBox="0 0 78 78">
    <path fill="#fff" d="M39 58c13.807 0 25-11.193 25-25S52.807 8 39 8 14 19.193 14 33s11.193 25 25 25z" filter="url(#a)"/>
    <path fill="#fff" d="M27.876 44.231l1.684-6.147a11.839 11.839 0 0 1-1.585-5.93c.003-6.541 5.326-11.862 11.867-11.862a11.792 11.792 0 0 1 8.394 3.478 11.791 11.791 0 0 1 3.472 8.393c-.002 6.54-5.326 11.863-11.866 11.863h-.005c-1.986-.001-3.937-.5-5.67-1.445l-6.291 1.65z"/>
    <path fill="#40C351" d="M27.876 44.544a.311.311 0 0 1-.301-.395l1.649-6.022a12.175 12.175 0 0 1-1.56-5.973c.002-6.714 5.465-12.175 12.178-12.175a12.104 12.104 0 0 1 8.615 3.57 12.1 12.1 0 0 1 3.564 8.614c-.003 6.713-5.466 12.175-12.179 12.175a12.21 12.21 0 0 1-5.715-1.423l-6.172 1.618a.286.286 0 0 1-.08.01z"/>
    <path fill="#40C351" d="M46.818 25.187a9.796 9.796 0 0 0-6.973-2.892c-5.44 0-9.864 4.423-9.867 9.86 0 1.862.521 3.676 1.508 5.247l.235.373-.996 3.638 3.733-.979.36.214a9.843 9.843 0 0 0 5.02 1.374h.004c5.436 0 9.86-4.423 9.863-9.86a9.8 9.8 0 0 0-2.887-6.975z"/>
    <path fill="#fff" fill-rule="evenodd" d="M36.876 27.195c-.222-.494-.456-.504-.668-.513-.173-.007-.37-.006-.568-.006a1.09 1.09 0 0 0-.79.37c-.272.298-1.039 1.015-1.039 2.473 0 1.459 1.063 2.869 1.211 3.067.148.197 2.051 3.286 5.065 4.475 2.504.988 3.014.791 3.558.742.544-.05 1.755-.717 2.001-1.41.247-.692.247-1.285.174-1.409-.075-.123-.272-.197-.569-.346-.296-.149-1.754-.866-2.026-.964-.272-.1-.47-.148-.667.148-.198.297-.766.965-.94 1.162-.172.198-.345.223-.642.075-.296-.15-1.25-.462-2.384-1.472-.881-.785-1.476-1.756-1.65-2.053-.172-.296-.018-.457.13-.605.134-.133.297-.346.446-.52.148-.172.197-.296.296-.493.099-.199.05-.372-.025-.52-.073-.149-.65-1.615-.913-2.201z" clip-rule="evenodd"/>
    <defs>
        <filter id="a" width="78" height="78" x="0" y="0" color-interpolation-filters="sRGB" filterUnits="userSpaceOnUse">
            <feFlood flood-opacity="0" result="BackgroundImageFix"/>
            <feColorMatrix in="SourceAlpha" values="0 0 0 0 0 0 0 0 0 0 0 0 0 0 0 0 0 0 127 0"/>
            <feOffset dy="6"/>
            <feGaussianBlur stdDeviation="7"/>
            <feColorMatrix values="0 0 0 0 0.929412 0 0 0 0 0.937255 0 0 0 0 0.956863 0 0 0 1 0"/>
            <feBlend in2="BackgroundImageFix" result="effect1_dropShadow"/>
            <feBlend in="SourceGraphic" in2="effect1_dropShadow" result="shape"/>
        </filter>
    </defs>
</svg>
