<svg xmlns="http://www.w3.org/2000/svg" width="78" height="78" fill="none" viewBox="0 0 78 78">
    <path fill="#fff" d="M39 58c13.807 0 25-11.193 25-25S52.807 8 39 8 14 19.193 14 33s11.193 25 25 25z" filter="url(#a)"/>
    <path fill="url(#b)" d="M39 45c6.627 0 12-5.373 12-12s-5.373-12-12-12-12 5.373-12 12 5.373 12 12 12z"/>
    <path fill="#fff" d="M45.106 27.487l-2.29 11.695s-.321.811-1.202.422L36.33 35.5l-1.922-.941-3.235-1.103s-.497-.178-.545-.568c-.048-.389.56-.6.56-.6l12.862-5.11s1.057-.47 1.057.309z"/>
    <path fill="#D2E5F1" d="M35.922 39.05s-.154-.014-.347-.631c-.192-.616-1.17-3.86-1.17-3.86l7.769-4.997s.448-.276.433 0c0 0 .08.049-.16.276-.24.227-6.103 5.564-6.103 5.564"/>
    <path fill="#B5CFE4" d="M38.355 37.073l-2.09 1.93s-.164.125-.342.047l.4-3.586"/>
    <defs>
        <filter id="a" width="78" height="78" x="0" y="0" color-interpolation-filters="sRGB" filterUnits="userSpaceOnUse">
            <feFlood flood-opacity="0" result="BackgroundImageFix"/>
            <feColorMatrix in="SourceAlpha" values="0 0 0 0 0 0 0 0 0 0 0 0 0 0 0 0 0 0 127 0"/>
            <feOffset dy="6"/>
            <feGaussianBlur stdDeviation="7"/>
            <feColorMatrix values="0 0 0 0 0.929412 0 0 0 0 0.937255 0 0 0 0 0.956863 0 0 0 1 0"/>
            <feBlend in2="BackgroundImageFix" result="effect1_dropShadow"/>
            <feBlend in="SourceGraphic" in2="effect1_dropShadow" result="shape"/>
        </filter>
        <linearGradient id="b" x1="39" x2="39" y1="21" y2="44.912" gradientUnits="userSpaceOnUse">
            <stop stop-color="#42BCE8"/>
            <stop offset="1" stop-color="#23A7DC"/>
        </linearGradient>
    </defs>
</svg>
